<svg width="80" height="48" viewBox="0 0 80 48" fill="none" xmlns="http://www.w3.org/2000/svg">
<rect width="80" height="48" rx="8" fill="white"/>
<path d="M49.6988 13.9995C45.1605 13.9995 41.0858 16.3663 41.0858 20.7094C41.0858 25.7113 48.2836 26.0529 48.2836 28.5416C48.2836 29.5908 47.0637 30.5424 45.0141 30.5424C42.0862 30.5424 39.8902 29.2248 39.8902 29.2248L38.963 33.6167C38.963 33.6167 41.4762 34.7391 44.8433 34.7391C49.8208 34.7391 53.7247 32.2748 53.7247 27.8341C53.7247 22.5638 46.5025 22.2222 46.5025 19.9042C46.5025 19.0746 47.5029 18.1718 49.5524 18.1718C51.8704 18.1718 53.7735 19.1234 53.7735 19.1234L54.7007 14.8779C54.6763 14.8779 52.6024 13.9995 49.6988 13.9995ZM8.122 14.3167L8 14.9511C8 14.9511 9.90316 15.2927 11.6355 16.0003C13.8559 16.8055 14.0023 17.2691 14.3927 18.7086L18.4674 34.3975H23.9329L32.3019 14.3167H26.8608L21.4685 27.9805L19.2726 16.3907C19.0774 15.0731 18.0526 14.3167 16.7838 14.3167H8.122ZM34.4979 14.3167L30.228 34.3975H35.4251L39.6706 14.3167H34.4979ZM63.4358 14.3167C62.1914 14.3167 61.5326 14.9755 61.0446 16.1467L53.432 34.3975H58.873L59.9222 31.3476H66.5589L67.1933 34.3975H72L67.8277 14.3167H63.4358ZM64.1434 19.7578L65.7537 27.2973H61.435L64.1434 19.7578Z" fill="#1434CB"/>
</svg>
