<svg width="80" height="48" viewBox="0 0 80 48" fill="none" xmlns="http://www.w3.org/2000/svg">
<rect width="80" height="48" rx="8" fill="white"/>
<path d="M44.3275 16.1172H35.6758V31.6629H44.3275V16.1172Z" fill="#FF5F00"/>
<path d="M36.2246 23.89C36.2246 20.8687 37.6253 17.9848 39.9874 16.1172C35.7027 12.7389 29.4955 13.4804 26.1172 17.7926C22.7389 22.0772 23.4804 28.2845 27.7926 31.6628C31.3906 34.4918 36.4168 34.4918 40.0149 31.6628C37.6253 29.7952 36.2246 26.9112 36.2246 23.89Z" fill="#EB001B"/>
<path d="M56.0007 23.89C56.0007 29.3557 51.5787 33.7777 46.113 33.7777C43.8883 33.7777 41.746 33.0361 40.0156 31.6628C44.3003 28.2845 45.0419 22.0772 41.6636 17.7651C41.1692 17.1609 40.6199 16.5841 40.0156 16.1172C44.3003 12.7389 50.535 13.4804 53.8859 17.7926C55.2592 19.5229 56.0007 21.6653 56.0007 23.89Z" fill="#F79E1B"/>
<path d="M55.0653 30.0154V29.6858H55.2026V29.6309H54.873V29.6858H55.0104V30.0154H55.0653ZM55.697 30.0154V29.6309H55.5872L55.4773 29.9055L55.3674 29.6309H55.2576V30.0154H55.34V29.7133L55.4498 29.9604H55.5322L55.6421 29.7133V30.0154H55.697Z" fill="#F79E1B"/>
</svg>
