<svg width="80" height="48" viewBox="0 0 80 48" fill="none" xmlns="http://www.w3.org/2000/svg">
<rect width="80" height="48" rx="8" fill="#FCD535"/>
<path d="M13.596 28.0208H13.5354L10.7539 25.2841L11.8111 24.2324L13.5657 25.975L15.3197 24.2324L16.3769 25.2841L13.596 28.0208Z" fill="#0B0B0B"/>
<path d="M9 23.5705V23.45L10.0505 22.4922L11.0519 23.5324L10.0505 24.5284L9 23.5705Z" fill="#0B0B0B"/>
<path d="M23.5784 23.4489C24.2892 22.9718 24.4539 21.8843 23.7292 21.3449C23.6135 21.2589 23.1909 21.0633 23.0644 21.0439H20.1914V25.9755H23.1854C23.286 25.9755 23.8097 25.7569 23.9229 25.6867C24.8245 25.1254 24.6313 23.659 23.5784 23.4489ZM21.28 22.006H22.6411C23.2115 22.006 23.2115 23.0287 22.6411 23.0287H21.28V22.006ZM23.2702 24.7972C23.2369 24.8487 22.9723 25.0134 22.9433 25.0134H21.28V23.9908H22.9433C23.2975 23.9908 23.4543 24.5115 23.2702 24.7972Z" fill="#0B0B0B"/>
<path d="M29.2935 21.0439L31.6221 24.0513V21.0439H32.7108V26.036H31.8334C31.6318 26.036 29.7288 23.1764 29.3232 22.9082V25.9755H28.2345V21.0439H29.2929H29.2935Z" fill="#0B0B0B"/>
<path d="M40.698 21.0437C40.7047 21.048 40.7077 21.1394 40.7573 21.1927C41.5578 22.0531 42.1953 23.178 42.997 24.0511V21.0437H44.0856V26.0358H43.2083C43.1756 26.0358 43.0842 25.965 43.0557 25.9299L40.698 22.9086V25.9759H39.6094V21.0437C39.7886 21.0819 40.6181 20.9923 40.698 21.0437Z" fill="#0B0B0B"/>
<path d="M54.4261 20.9834V22.006H51.7644V22.9681H54.1233V23.9908H51.7644V25.0134H54.4866V25.9755H50.6758V20.9834H54.4261Z" fill="#0B0B0B"/>
<path d="M36.6936 20.9916L35.7018 20.9795L33.4961 25.9752H34.615L35.0618 24.9284C35.0776 24.8793 35.1175 24.8932 35.1569 24.889C35.3767 24.863 37.0181 24.8587 37.1459 24.9023C37.3438 24.9701 37.4861 25.8075 37.6999 25.9752H38.8194L36.6936 20.9916ZM35.4923 23.9305L36.0978 22.3666C36.1717 22.3727 36.1995 22.4496 36.2298 22.5053C36.4435 22.8958 36.6336 23.5025 36.7626 23.9305H35.4923Z" fill="#0B0B0B"/>
<path d="M47.5189 20.9421C47.9373 20.9034 48.481 20.9742 48.8788 21.1183C49.0622 21.1849 49.7113 21.5476 49.7107 21.7365C49.7107 21.7922 49.1288 22.4667 49.0647 22.4788C48.9514 22.5006 48.745 22.2784 48.6221 22.2154C46.3316 21.0475 45.49 24.4375 47.3367 24.9976C47.9621 25.1871 48.639 24.9412 49.0737 24.4738C49.1664 24.6088 49.7482 25.0781 49.7652 25.1731C49.8064 25.4075 48.8098 25.9094 48.5869 25.9736C44.7531 27.0749 43.7753 21.2903 47.5189 20.9427V20.9421Z" fill="#0B0B0B"/>
<path d="M64.3785 20.9802C64.143 21.0256 63.7174 20.8863 63.5648 21.0801L61.4414 25.9759H62.349L62.8261 24.8104C62.8994 24.7159 64.8817 24.797 65.182 24.7831C65.2583 24.9321 65.6343 25.9759 65.7057 25.9759H66.583L64.3785 20.9802ZM63.1954 23.9912L64.0122 22.0658L64.829 23.9912H63.1954Z" fill="#0B0B0B"/>
<path d="M60.6892 21.2825C60.5984 21.231 60.1528 21.0439 60.0825 21.0439H57.6328V25.9755H58.4799V24.4122H59.7804C59.8664 24.4122 60.3241 24.2681 60.4379 24.2239C61.7058 23.7274 61.8675 21.9564 60.6892 21.2825ZM60.3822 23.2666C60.3175 23.349 59.982 23.57 59.9015 23.57H58.4799V21.8256H59.7199C59.798 21.8256 60.1485 21.9727 60.2363 22.0339C60.6172 22.3003 60.6632 22.9112 60.3822 23.2666Z" fill="#0B0B0B"/>
<path d="M13.569 19L16.3808 21.7954L15.3757 22.7836L13.5696 21.0447L11.8071 22.7836C11.6933 22.8036 10.9225 21.9202 10.7578 21.7954L13.569 19Z" fill="#0B0B0B"/>
<path d="M67.2494 21.0436L68.5505 23.1494L68.6916 23.0489C68.8799 22.8261 69.8814 21.0436 70.0019 21.0436H70.9997L69.0034 24.0207V25.9751H68.1564V24.0806L66.1602 21.043H67.2488L67.2494 21.0436Z" fill="#0B0B0B"/>
<path d="M26.7839 21.0439H25.6953V25.9761H26.7839V21.0439Z" fill="#0B0B0B"/>
<path d="M17.1362 22.4883C17.2621 22.6518 18.1503 23.4183 18.1297 23.5315L17.0841 24.5281L16.082 23.4885L17.1362 22.4889V22.4883Z" fill="#0B0B0B"/>
<path d="M13.5681 22.4883L14.5617 23.4879C14.5817 23.6011 13.6935 24.3677 13.5681 24.5311L12.5746 23.5315C12.5546 23.4183 13.4428 22.6518 13.5681 22.4883Z" fill="#0B0B0B"/>
</svg>
