<svg width="80" height="48" viewBox="0 0 80 48" fill="none" xmlns="http://www.w3.org/2000/svg">
<rect width="80" height="48" rx="8" fill="white"/>
<path d="M19.6927 14.3875C18.9427 15.275 17.7427 15.975 16.5427 15.875C16.3927 14.675 16.9802 13.4 17.6677 12.6125C18.4177 11.7 19.7302 11.05 20.7927 11C20.9177 12.25 20.4302 13.475 19.6927 14.3875ZM20.7802 16.1125C19.0427 16.0125 17.5552 17.1 16.7302 17.1C15.8927 17.1 14.6302 16.1625 13.2552 16.1875C11.4677 16.2125 9.80517 17.225 8.89267 18.8375C7.01767 22.0625 8.40517 26.8375 10.2177 29.4625C11.1052 30.7625 12.1677 32.1875 13.5677 32.1375C14.8927 32.0875 15.4177 31.275 17.0177 31.275C18.6302 31.275 19.0927 32.1375 20.4927 32.1125C21.9427 32.0875 22.8552 30.8125 23.7427 29.5125C24.7552 28.0375 25.1677 26.6 25.1927 26.525C25.1677 26.5 22.3927 25.4375 22.3677 22.2375C22.3427 19.5625 24.5552 18.2875 24.6552 18.2125C23.4052 16.3625 21.4552 16.1625 20.7802 16.1125ZM30.8177 12.4875V31.975H33.8427V25.3125H38.0302C41.8552 25.3125 44.5427 22.6875 44.5427 18.8875C44.5427 15.0875 41.9052 12.4875 38.1302 12.4875H30.8177ZM33.8427 15.0375H37.3302C39.9552 15.0375 41.4552 16.4375 41.4552 18.9C41.4552 21.3625 39.9552 22.775 37.3177 22.775H33.8427V15.0375ZM50.0677 32.125C51.9677 32.125 53.7302 31.1625 54.5302 29.6375H54.5927V31.975H57.3927V22.275C57.3927 19.4625 55.1427 17.65 51.6802 17.65C48.4677 17.65 46.0927 19.4875 46.0052 22.0125H48.7302C48.9552 20.8125 50.0677 20.025 51.5927 20.025C53.4427 20.025 54.4802 20.8875 54.4802 22.475V23.55L50.7052 23.775C47.1927 23.9875 45.2927 25.425 45.2927 27.925C45.2927 30.45 47.2552 32.125 50.0677 32.125ZM50.8802 29.8125C49.2677 29.8125 48.2427 29.0375 48.2427 27.85C48.2427 26.625 49.2302 25.9125 51.1177 25.8L54.4802 25.5875V26.6875C54.4802 28.5125 52.9302 29.8125 50.8802 29.8125ZM61.1302 37.275C64.0802 37.275 65.4677 36.15 66.6802 32.7375L71.9927 17.8375H68.9177L65.3552 29.35H65.2927L61.7302 17.8375H58.5677L63.6927 32.025L63.4177 32.8875C62.9552 34.35 62.2052 34.9125 60.8677 34.9125C60.6302 34.9125 60.1677 34.8875 59.9802 34.8625V37.2C60.1552 37.25 60.9052 37.275 61.1302 37.275Z" fill="black"/>
</svg>
