<svg width="80" height="48" viewBox="0 0 80 48" fill="none" xmlns="http://www.w3.org/2000/svg">
<rect width="80" height="48" rx="8" fill="white"/>
<path d="M11.7396 23.5776V29.0267H8V13H14.6778C16.9087 13 19.0029 15.5547 19.2059 17.6606C19.4666 20.3659 17.3575 23.5776 14.4641 23.5776H11.7396ZM11.7396 20.2654H13.7162C13.7739 20.2654 14.2387 20.0838 14.3402 20.0347C15.6554 19.4011 15.7751 17.4415 14.5539 16.6498C14.4598 16.5889 13.87 16.3122 13.823 16.3122H11.7396V20.2654Z" fill="black"/>
<path d="M48.387 23.5776V29.0267H44.6475V13H51.3253C53.8521 13 55.9174 16.0301 55.8726 18.3989C55.8266 20.8104 53.6502 23.5776 51.1116 23.5776H48.387ZM48.387 20.2654H50.3637C50.4011 20.2654 50.9566 20.0357 51.0475 19.9876C52.2933 19.3359 52.3552 17.4052 51.2002 16.6498C51.1073 16.5889 50.5164 16.3122 50.4694 16.3122H48.386V20.2654H48.387Z" fill="black"/>
<path d="M63.7729 29.0266V28.1718C60.2813 31.0662 55.5373 28.3727 55.3269 24.0636C55.1014 19.433 59.9052 16.1828 63.7719 19.1969V18.3421H66.9249L67.0851 18.5024V29.0266H63.7729ZM60.6467 21.3594C59.6968 21.5186 58.9756 22.7345 58.9617 23.6363C58.9126 26.7978 63.2879 26.9741 63.5571 24.0572C63.7302 22.1821 62.5047 21.0463 60.6467 21.3594Z" fill="black"/>
<path d="M27.0183 29.0265V28.1718C22.2071 31.8708 16.7602 26.349 19.0937 21.1553C20.1408 18.8261 22.9444 17.4104 25.4146 18.2897L27.0183 19.1958V18.3421H30.2248V29.0265H27.0194H27.0183ZM22.8899 21.9064C21.5201 23.2655 22.2691 25.9761 24.2949 26.1439C27.7289 26.4281 27.6851 20.5548 23.8077 21.3818C23.5224 21.4427 23.0939 21.7045 22.8899 21.9064Z" fill="black"/>
<path d="M35.0314 18.3423L37.7036 23.4708L40.3202 18.3423H43.8995L35.993 34.4758H32.2534L35.8616 27.0683L31.1615 18.7397L31.0781 18.3423H35.0314Z" fill="black"/>
<path d="M72 13H68.3673V29.0267H72V13Z" fill="black"/>
</svg>
