<svg width="80" height="48" viewBox="0 0 80 48" fill="none" xmlns="http://www.w3.org/2000/svg">
<rect width="80" height="48" rx="8" fill="white"/>
<path fill-rule="evenodd" clip-rule="evenodd" d="M69.64 26.28H61.58C61.77 28.21 63.18 28.83 64.78 28.83C66.42 28.83 67.74 28.46 68.83 27.88V31.2C67.4468 31.9959 65.864 32.3777 64.27 32.3C60.26 32.3 57.44 29.8 57.44 24.82C57.44 20.63 59.83 17.3 63.74 17.3C67.66 17.3 69.7 20.58 69.7 24.8C69.7 25.2 69.66 26.06 69.64 26.28ZM63.72 20.66C62.69 20.66 61.55 21.39 61.55 23.24H65.8C65.8 21.39 64.73 20.66 63.72 20.66ZM50.95 32.3C49.51 32.3 48.63 31.7 48.05 31.26L48.03 35.89L43.91 36.76V17.57H47.67L47.75 18.59C48.6221 17.7628 49.778 17.3011 50.98 17.3C53.88 17.3 56.6 19.9 56.6 24.7C56.6 29.93 53.9 32.3 50.95 32.3ZM50 20.95C49.05 20.95 48.46 21.29 48.03 21.76L48.05 27.88C48.45 28.32 49.03 28.66 50 28.66C51.52 28.66 52.54 27.01 52.54 24.79C52.54 22.64 51.5 20.95 50 20.95ZM38.24 17.57H42.37V32.01H38.24V17.57ZM38.24 12.87L42.37 12V15.36L38.24 16.24V12.88V12.87ZM33.92 22.22V32.01H29.8V17.57H33.5L33.62 18.79C34.62 17.02 36.69 17.38 37.24 17.57V21.36C36.72 21.19 34.95 20.93 33.92 22.22ZM25.37 26.94C25.37 29.37 27.97 28.62 28.49 28.4V31.76C27.94 32.06 26.95 32.3 25.6 32.3C25.0373 32.3164 24.4772 32.2182 23.9537 32.0113C23.4302 31.8044 22.9543 31.4932 22.5549 31.0966C22.1554 30.7 21.8409 30.2262 21.6303 29.7042C21.4197 29.1822 21.3176 28.6228 21.33 28.06L21.34 14.89L25.36 14.03V17.57H28.5V21.1H25.37V26.95V26.94ZM20.46 27.64C20.46 30.61 18.15 32.3 14.73 32.3C13.1953 32.2988 11.6772 31.9823 10.27 31.37V27.44C11.65 28.19 13.37 28.75 14.73 28.75C15.65 28.75 16.26 28.51 16.26 27.75C16.26 25.77 10 26.51 10 21.95C10 19.04 12.28 17.3 15.62 17.3C16.98 17.3 18.34 17.5 19.71 18.05V21.93C18.444 21.2637 17.0403 20.9008 15.61 20.87C14.75 20.87 14.17 21.12 14.17 21.77C14.17 23.62 20.46 22.74 20.46 27.65V27.64Z" fill="#635BFF"/>
</svg>
